# xmcd
#
# Track frame offsets: 
#        150
#        32622
#        70312
#        87345
#        125780
#        156650
#        187785
#        218992
#        244507
#
# Disc length: 4495 seconds
#
# Revision: 2
# Processed by: cddbd v1.5.2PL0 Copyright (c) Steve Scherf et al.
# Submitted via: ExactAudioCopyFreeDBPlugin 1.0
#
DISCID=7d118d09
DTITLE=Esbjorn Svensson Trio (E.S.T) - Viaticum
DYEAR=2005
DGENRE=Jazz
TTITLE0=Tide Of Trepidation
TTITLE1=Eighty-eight Days In My Veins
TTITLE2=The Well-wisher
TTITLE3=The Unstable Table and The Infamous Fable
TTITLE4=Viaticum
TTITLE5=In The Tail Of Her Eye
TTITLE6=Letter From The Leviathan
TTITLE7=A Picture Of Doris Travelling With Boris
TTITLE8=What Though The Way May Be Long
EXTD=YEAR: 2005
EXTT0=
EXTT1=
EXTT2=
EXTT3=
EXTT4=
EXTT5=
EXTT6=
EXTT7=
EXTT8=
PLAYORDER=
